:FULLY-SPECIFIED
:FORCE-ALL-JOINTS-BE-3DOF
:DEGREES
356
root 9.27158 17.0585 14.1578 6.42258 8.333 -2.01123
lfemur -16.2203 7.78177 -14.705
ltibia 63.5013 0 0
lfoot -5.2221 9.96443 0
ltoes -4.85279 0 0
rfemur -23.2455 4.51422 26.7217
rtibia 33.2565 0 0
rfoot -14.6007 1.22467 0
rtoes -12.2764 0 0
lowerback -6.07176 -2.10406 -1.01741
upperback -1.32142 -2.80348 2.79344
thorax 2.23377 -1.41163 3.22341
lowerneck -19.8054 -6.05108 -13.3537
upperneck 20.577 -7.88865 14.0964
head 11.0687 -3.05212 6.17743
lclavicle 2.75249e-14 3.4699e-15 0
lhumerus -38.7276 -23.1149 100.42
lradius 26.5876 0 0
lwrist 8.95721 0 0
lhand -13.6756 -20.9217 0
lfingers 7.12502 0 0
lthumb 12.4419 8.68737 0
rclavicle 2.75249e-14 3.4699e-15 0
rhumerus -41.3977 13.3317 -84.9379
rradius 39.2479 0 0
rwrist -22.3248 0 0
rhand -29.9495 -27.1771 0
rfingers 7.12502 0 0
rthumb -3.26869 -57.1311 0
357
root 9.26939 17.077 14.285 6.42731 8.12055 -2.10095
lfemur -17.6666 7.73032 -14.8867
ltibia 64.2729 0 0
lfoot -5.97137 10.4278 0
ltoes -4.76343 0 0
rfemur -22.4749 4.67261 26.9131
rtibia 32.7345 0 0
rfoot -14.8653 1.22229 0
rtoes -12.3418 0 0
lowerback -6.03688 -1.95101 -0.916956
upperback -1.2952 -2.60601 2.78365
thorax 2.22085 -1.31224 3.17622
lowerneck -19.7986 -6.08748 -13.3715
upperneck 20.572 -7.93626 14.1016
head 11.074 -3.07474 6.1743
lclavicle 2.74545e-14 4.06189e-15 0
lhumerus -39.1956 -22.875 100.241
lradius 26.5257 0 0
lwrist 9.14562 0 0
lhand -13.7378 -20.7804 0
lfingers 7.12502 0 0
lthumb 12.382 8.83263 0
rclavicle 2.74545e-14 4.06189e-15 0
rhumerus -41.0015 13.7159 -85.0387
rradius 39.686 0 0
rwrist -22.6751 0 0
rhand -30.0751 -27.1713 0
rfingers 7.12502 0 0
rthumb -3.39 -57.1238 0
358
root 9.26774 17.0923 14.4131 6.42304 7.90617 -2.19657
lfemur -18.9974 7.67202 -15.0297
ltibia 64.8007 0 0
lfoot -6.61248 10.7996 0
ltoes -4.75524 0 0
rfemur -21.7246 4.80444 27.1156
rtibia 32.2657 0 0
rfoot -15.0932 1.25342 0
rtoes -12.4372 0 0
lowerback -6.00412 -1.80316 -0.815758
upperback -1.26701 -2.41597 2.78031
thorax 2.21301 -1.21656 3.13424
lowerneck -19.7965 -6.11798 -13.3795
upperneck 20.5773 -7.97579 14.0945
head 11.0818 -3.09408 6.16645
lclavicle 2.70223e-14 4.37326e-15 0
lhumerus -39.6529 -22.5957 100.069
lradius 26.4622 0 0
lwrist 9.2867 0 0
lhand -13.7859 -20.6825 0
lfingers 7.12502 0 0
lthumb 12.3356 8.93365 0
rclavicle 2.70223e-14 4.37326e-15 0
rhumerus -40.5988 14.0622 -85.1072
rradius 40.0746 0 0
rwrist -22.9576 0 0
rhand -30.1895 -27.1641 0
rfingers 7.12502 0 0
rthumb -3.50044 -57.1151 0
359
root 9.26678 17.1048 14.5407 6.40982 7.68192 -2.29417
lfemur -20.252 7.61131 -15.1614
ltibia 65.0864 0 0
lfoot -7.18414 11.0832 0
ltoes -4.82702 0 0
rfemur -20.993 4.91759 27.3227
rtibia 31.8449 0 0
rfoot -15.3145 1.3065 0
rtoes -12.5825 0 0
lowerback -5.97144 -1.65686 -0.715865
upperback -1.2356 -2.22806 2.78154
thorax 2.21 -1.12201 3.09685
lowerneck -19.7988 -6.14331 -13.3767
upperneck 20.5943 -8.00822 14.073
head 11.0924 -3.11075 6.15277
lclavicle 2.61611e-14 4.40177e-15 0
lhumerus -40.1009 -22.2788 99.8902
lradius 26.4052 0 0
lwrist 9.39255 0 0
lhand -13.8206 -20.6257 0
lfingers 7.12502 0 0
lthumb 12.3021 8.99287 0
rclavicle 2.61611e-14 4.40177e-15 0
rhumerus -40.1786 14.3848 -85.1438
rradius 40.4328 0 0
rwrist -23.1868 0 0
rhand -30.2992 -27.1559 0
rfingers 7.12502 0 0
rthumb -3.6064 -57.1053 0
360
root 9.26666 17.1154 14.6665 6.38899 7.44052 -2.3894
lfemur -21.4785 7.55167 -15.3107
ltibia 65.1552 0 0
lfoot -7.73535 11.293 0
ltoes -4.96758 0 0
rfemur -20.2747 5.02254 27.5263
rtibia 31.4576 0 0
rfoot -15.5604 1.36657 0
rtoes -12.7915 0 0
lowerback -5.93708 -1.50813 -0.619328
upperback -1.20001 -2.03649 2.78485
thorax 2.21125 -1.02578 3.06295
lowerneck -19.8041 -6.16479 -13.3635
upperneck 20.623 -8.03534 14.0368
head 11.1058 -3.12567 6.13289
lclavicle 2.48554e-14 4.1821e-15 0
lhumerus -40.5414 -21.9314 99.6894
lradius 26.3634 0 0
lwrist 9.48006 0 0
lhand -13.8436 -20.6024 0
lfingers 7.12502 0 0
lthumb 12.28 9.01792 0
rclavicle 2.48554e-14 4.1821e-15 0
rhumerus -39.732 14.7007 -85.1531
rradius 40.7828 0 0
rwrist -23.3835 0 0
rhand -30.4114 -27.1465 0
rfingers 7.12502 0 0
rthumb -3.71472 -57.0942 0
361
root 9.26734 17.1241 14.7908 6.3614 7.18371 -2.4826
lfemur -22.6765 7.49173 -15.4743
ltibia 65.0227 0 0
lfoot -8.26653 11.4359 0
ltoes -5.17047 0 0
rfemur -19.5676 5.11975 27.7266
rtibia 31.0988 0 0
rfoot -15.8263 1.43329 0
rtoes -13.0567 0 0
lowerback -5.90157 -1.35734 -0.525804
upperback -1.16064 -1.84182 2.79018
thorax 2.21661 -0.92812 3.03234
lowerneck -19.8121 -6.1827 -13.341
upperneck 20.6622 -8.05755 13.9873
head 11.1219 -3.13897 6.10748
lclavicle 2.3151e-14 3.73924e-15 0
lhumerus -40.9747 -21.5568 99.4695
lradius 26.3354 0 0
lwrist 9.55041 0 0
lhand -13.8553 -20.6095 0
lfingers 7.12502 0 0
lthumb 12.2687 9.01183 0
rclavicle 2.3151e-14 3.73924e-15 0
rhumerus -39.2621 15.009 -85.1376
rradius 41.1238 0 0
rwrist -23.5492 0 0
rhand -30.5252 -27.1355 0
rfingers 7.12502 0 0
rthumb -3.82461 -57.0814 0
362
root 9.26877 17.1312 14.9137 6.32789 6.91325 -2.57416
lfemur -23.8452 7.43011 -15.6489
ltibia 64.7043 0 0
lfoot -8.7781 11.5185 0
ltoes -5.42922 0 0
rfemur -18.8696 5.20963 27.9235
rtibia 30.7633 0 0
rfoot -16.108 1.50632 0
rtoes -13.3704 0 0
lowerback -5.86545 -1.20486 -0.434947
upperback -1.11791 -1.64461 2.79744
thorax 2.22592 -0.829311 3.00477
lowerneck -19.8225 -6.19734 -13.3103
upperneck 20.7107 -8.07522 13.9261
head 11.1401 -3.15074 6.0772
lclavicle 2.10934e-14 3.09817e-15 0
lhumerus -41.4009 -21.158 99.2329
lradius 26.3202 0 0
lwrist 9.60479 0 0
lhand -13.8563 -20.644 0
lfingers 7.12502 0 0
lthumb 12.2678 8.97767 0
rclavicle 2.10934e-14 3.09817e-15 0
rhumerus -38.7719 15.3093 -85.0997
rradius 41.4547 0 0
rwrist -23.686 0 0
rhand -30.6398 -27.1226 0
rfingers 7.12502 0 0
rthumb -3.9353 -57.0664 0
363
root 9.27093 17.1367 15.0354 6.28929 6.63087 -2.66445
lfemur -24.9842 7.36546 -15.8309
ltibia 64.2153 0 0
lfoot -9.27046 11.5478 0
ltoes -5.73736 0 0
rfemur -18.1785 5.29262 28.1171
rtibia 30.4457 0 0
rfoot -16.4009 1.58533 0
rtoes -13.7253 0 0
lowerback -5.82924 -1.05106 -0.346414
upperback -1.07222 -1.44543 2.80658
thorax 2.23904 -0.729615 2.98005
lowerneck -19.8347 -6.20896 -13.2726
upperneck 20.7675 -8.08872 13.8547
head 11.1602 -3.16111 6.04273
lclavicle 1.87286e-14 2.28389e-15 0
lhumerus -41.8199 -20.7382 98.9823
lradius 26.3165 0 0
lwrist 9.64435 0 0
lhand -13.847 -20.703 0
lfingers 7.12502 0 0
lthumb 12.2768 8.91846 0
rclavicle 1.87286e-14 2.28389e-15 0
rhumerus -38.2647 15.6007 -85.042
rradius 41.7747 0 0
rwrist -23.7956 0 0
rhand -30.7544 -27.1072 0
rfingers 7.12502 0 0
rthumb -4.046 -57.049 0
364
root 9.27376 17.1407 15.1561 6.24646 6.33833 -2.75382
lfemur -26.093 7.29639 -16.0172
ltibia 63.5712 0 0
lfoot -9.74404 11.5303 0
ltoes -6.08844 0 0
rfemur -17.4922 5.36917 28.3074
rtibia 30.1411 0 0
rfoot -16.7007 1.66996 0
rtoes -14.1137 0 0
lowerback -5.79348 -0.89633 -0.259862
upperback -1.02398 -1.24484 2.81751
thorax 2.25579 -0.629299 2.95794
lowerneck -19.8485 -6.21787 -13.2289
upperneck 20.8311 -8.09843 13.7745
head 11.1819 -3.17018 6.00474
lclavicle 1.61021e-14 1.32137e-15 0
lhumerus -42.232 -20.3006 98.7204
lradius 26.3231 0 0
lwrist 9.6703 0 0
lhand -13.828 -20.7834 0
lfingers 7.12502 0 0
lthumb 12.2952 8.83726 0
rclavicle 1.61021e-14 1.32137e-15 0
rhumerus -37.7435 15.8826 -84.9669
rradius 42.0828 0 0
rwrist -23.8799 0 0
rhand -30.8683 -27.089 0
rfingers 7.12502 0 0
rthumb -4.15592 -57.0287 0
365
root 9.27724 17.1435 15.2759 6.20024 6.03738 -2.84265
lfemur -27.1709 7.22155 -16.2042
ltibia 62.7875 0 0
lfoot -10.1992 11.4729 0
ltoes -6.476 0 0
rfemur -16.8085 5.4397 28.4944
rtibia 29.8441 0 0
rfoot -17.0029 1.75989 0
rtoes -14.5281 0 0
lowerback -5.75869 -0.741036 -0.174945
upperback -0.973616 -1.04341 2.83017
thorax 2.27603 -0.528631 2.93824
lowerneck -19.8634 -6.22433 -13.1804
upperneck 20.9006 -8.10473 13.6871
head 11.2048 -3.17805 5.96391
lclavicle 1.32597e-14 2.35603e-16 0
lhumerus -42.6372 -19.8482 98.4499
lradius 26.3387 0 0
lwrist 9.68381 0 0
lhand -13.7997 -20.8822 0
lfingers 7.12502 0 0
lthumb 12.3224 8.7371 0
rclavicle 1.32597e-14 2.35603e-16 0
rhumerus -37.2114 16.1543 -84.8771
rradius 42.378 0 0
rwrist -23.9406 0 0
rhand -30.9805 -27.0676 0
rfingers 7.12502 0 0
rthumb -4.2643 -57.0051 0
